<svg xmlns="http://www.w3.org/2000/svg" viewBox="0 0 364.8 191.21"><defs><style>.cls-1{fill:#a64ac9;}</style></defs><title>Ativo 1</title><g id="Camada_2" data-name="Camada 2"><g id="BACKGROUND_1" data-name="BACKGROUND 1"><path class="cls-1" d="M301.46,122.37a161.54,161.54,0,0,0,17.47-32.26,161.42,161.42,0,0,0,7.22-21.56c2.41-9.33,3.11-18.65,3.53-28.25.21-4.78-6.14-5.68-8.4-2.77A5,5,0,0,0,317.81,42c-2,21.21-15.17,40.72-29.62,55.7-16.16,16.74-36.42,31.45-58.33,39.57-24.17,8.95-51.06,12.11-76.73,11.38-24.11-.69-48.39-5.68-70-16.62a136.94,136.94,0,0,1-29.57-19.88A151.23,151.23,0,0,1,40.49,98.87c-3-3.37-6.09-6.73-9-10.18l-.54-.79a4.09,4.09,0,0,0-.92-1c-.53-.65-1.05-1.3-1.56-2-2.29-3-5.83-2.42-7.39-.2a2.7,2.7,0,0,0-1.66,3.32c7.94,25.58,25.21,48.63,45.74,65.6a162,162,0,0,0,74.85,35c30.14,5.28,61.74,2.39,90.12-9.23a182.17,182.17,0,0,0,27.16-14.29C270,157.25,292,135.52,301.46,122.37Z"/><path class="cls-1" d="M25,50.45c-.76,5.1-2.69,10.27-7,13.4C13.1,67.38,7.79,67.36,2.06,67.27a2.1,2.1,0,0,0-1,3.88c13.15,7,29.93-5,31.93-18.51C33.7,47.46,25.77,45.22,25,50.45Z"/><path class="cls-1" d="M358.91,7c-7.34,5.51-17,8.56-26.15,6.09a34.21,34.21,0,0,1-11.3-5.66C318.55,5.26,315.83.9,312.22,0a1.33,1.33,0,0,0-1.49.6c-2.09,4.5,2.21,10.08,5,13.3a30.81,30.81,0,0,0,14.3,9,32.61,32.61,0,0,0,33.79-9.55C366.63,10.13,362.84,4,358.91,7Z"/></g></g></svg>